<?xml version="1.0" standalone="no"?>
<!DOCTYPE svg PUBLIC "-//W3C//DTD SVG 20010904//EN"
 "http://www.w3.org/TR/2001/REC-SVG-20010904/DTD/svg10.dtd">
<svg version="1.0" xmlns="http://www.w3.org/2000/svg"
 width="220.000000pt" height="220.000000pt" viewBox="0 0 220.000000 220.000000"
 preserveAspectRatio="xMidYMid meet">
<metadata>
Created by potrace 1.14, written by Peter Selinger 2001-2017
</metadata>
<g transform="translate(0.000000,220.000000) scale(0.100000,-0.100000)"
fill="#000000" stroke="none">
<path d="M0 1100 l0 -1100 1100 0 1100 0 0 1100 0 1100 -1100 0 -1100 0 0
-1100z m1087 322 c216 -273 417 -532 448 -574 31 -43 58 -78 61 -78 2 0 4 219
4 486 l0 485 -87 -2 -88 -2 -3 91 -3 92 276 0 275 0 0 -79 0 -78 -40 -7 c-58
-9 -84 -24 -106 -59 -18 -31 -19 -63 -22 -754 l-3 -723 -103 0 -103 0 -404
517 c-223 285 -424 544 -447 576 -24 31 -44 57 -45 57 -1 0 -2 -214 -2 -476
l0 -475 85 2 85 2 3 -91 3 -92 -276 0 -275 0 0 79 0 78 45 7 c60 8 81 20 102
59 17 29 18 85 23 655 l5 623 -90 -2 -90 -2 -3 78 c-2 43 -1 84 2 92 4 10 45
13 193 12 l188 0 392 -497z"/>
</g>
</svg>
